<svg xmlns="http://www.w3.org/2000/svg" width="36" height="36" viewBox="0 0 36 36"><defs><style>.a{fill:#fff;stroke:rgba(146,192,70,0.74);}.b{fill:rgba(146,192,70,0.44);}.c{stroke:none;}.d{fill:none;}</style></defs><g class="a"><rect class="c" width="36" height="36" rx="5"/><rect class="d" x="0.5" y="0.5" width="35" height="35" rx="4.5"/></g><path class="b" d="M146.638,141.554a8.739,8.739,0,0,0-3.369.674,9.038,9.038,0,0,0-1.8,1.016v7.07a5.165,5.165,0,1,0,5.983-5.094,4.1,4.1,0,0,0-.818-.072,4.981,4.981,0,0,0-1.117.124h-.049a.956.956,0,0,0-.1,1.906c.059-.025.121-.048.182-.07a3.08,3.08,0,0,1,.533-.131,3.337,3.337,0,0,1,.6-.053,3.381,3.381,0,1,1,0,6.761h-.047a3.376,3.376,0,0,1-3.369-3.369v-6.093a6.886,6.886,0,0,1,3.369-.875,6.962,6.962,0,1,1-6.961,6.962V137.888a.9.9,0,0,0-1.8,0V150.31a8.759,8.759,0,1,0,8.757-8.755Z" transform="translate(-128.639 -130.605)"/></svg>